<?xml version="1.0" encoding="UTF-8" standalone="no"?>
<!-- Created with Inkscape (http://www.inkscape.org/) -->

<svg
   version="1.1"
   id="svg16537"
   width="800"
   height="800"
   viewBox="0 0 800 800"
   sodipodi:docname="bull-logo-publicdomainvectors.org (2).svg"
   inkscape:version="1.2 (dc2aedaf03, 2022-05-15)"
   xmlns:inkscape="http://www.inkscape.org/namespaces/inkscape"
   xmlns:sodipodi="http://sodipodi.sourceforge.net/DTD/sodipodi-0.dtd"
   xmlns="http://www.w3.org/2000/svg"
   xmlns:svg="http://www.w3.org/2000/svg">
  <defs
     id="defs16541">
    <clipPath
       clipPathUnits="userSpaceOnUse"
       id="clipPath16553">
      <path
         d="M 0,600 H 600 V 0 H 0 Z"
         id="path16551" />
    </clipPath>
  </defs>
  <sodipodi:namedview
     id="namedview16539"
     pagecolor="#ffffff"
     bordercolor="#000000"
     borderopacity="0.25"
     inkscape:showpageshadow="2"
     inkscape:pageopacity="0.0"
     inkscape:pagecheckerboard="0"
     inkscape:deskcolor="#d1d1d1"
     showgrid="false"
     inkscape:zoom="1.04625"
     inkscape:cx="400"
     inkscape:cy="400.4779"
     inkscape:window-width="1920"
     inkscape:window-height="1017"
     inkscape:window-x="-8"
     inkscape:window-y="-8"
     inkscape:window-maximized="1"
     inkscape:current-layer="g16545">
    <inkscape:page
       x="0"
       y="0"
       id="page16543"
       width="800"
       height="800" />
  </sodipodi:namedview>
  <g
     id="g16545"
     inkscape:groupmode="layer"
     inkscape:label="Page 1"
     transform="matrix(1.3333333,0,0,-1.3333333,0,800)">
    <g
       id="g16547">
      <g
         id="g16549"
         clip-path="url(#clipPath16553)">
        <g
           id="g16555"
           transform="translate(502.9346,391.7065)">
          <path
             d="m 0,0 c -11.989,-4.106 -25.324,-6.515 -37.029,-7.919 0.549,-0.121 1.109,-0.229 1.682,-0.325 3.28,-0.534 6.49,-0.577 9.509,-0.124 0.058,0.009 0.113,0.016 0.17,0.023 0.481,0.065 1.101,0.141 1.746,0.16 0.841,0.034 1.708,-0.008 2.58,-0.126 1.737,-0.226 3.43,-0.761 5.004,-1.586 3.009,-1.557 5.473,-4.149 6.908,-7.284 1.465,-3.162 1.789,-6.932 0.879,-10.318 -0.217,-0.814 -0.513,-1.639 -0.875,-2.434 -0.022,-0.049 -0.046,-0.097 -0.069,-0.145 l -0.051,-0.107 c -0.167,-0.347 -0.344,-0.693 -0.536,-1.019 -0.117,-0.204 -0.317,-0.531 -0.461,-0.756 l 0.002,-0.002 c -0.376,-0.586 -0.756,-1.162 -1.153,-1.721 -2.75,-3.889 -5.991,-7.566 -9.899,-11.236 -8.219,-7.563 -16.489,-12.723 -25.33,-15.818 -5.827,-2.001 -11.446,-2.812 -16.745,-2.418 -3.164,0.226 -6.223,0.89 -9.071,1.97 -3.03,1.174 -5.758,2.718 -8.153,4.604 -3.821,2.962 -7.119,6.975 -9.79,11.916 -0.206,-0.141 -0.413,-0.277 -0.621,-0.41 -0.221,-0.145 -0.446,-0.288 -0.675,-0.426 10.414,-27.866 5.63,-47.783 1.629,-57.495 -4.762,-11.557 -12.99,-20.25 -22.008,-23.253 -5.422,-1.806 -10.711,-1.681 -15.377,-1.569 -0.774,0.018 -1.56,0.035 -2.341,0.043 -4.963,-5.947 -8.959,-16.444 -10.461,-27.718 0.688,-11.708 2.46,-13.912 2.993,-14.31 9.931,-5.137 13.559,-21.029 7.877,-34.68 -1.663,-3.999 -7.646,-15.32 -22.717,-18.215 1.348,-3.099 1.502,-5.44 0.828,-8 -0.853,-3.255 -3.12,-5.865 -6.218,-7.16 -4.472,-1.868 -6.577,-3.799 -9.49,-6.471 -4.443,-4.075 -9.962,-9.135 -22.661,-12.933 -0.729,-0.218 -1.407,-0.434 -2.047,-0.638 -3.429,-1.091 -6.587,-1.994 -10.511,-1.994 -4.324,0 -8.925,1.08 -15.384,3.608 -9.222,3.613 -15.347,9.686 -19.821,14.12 -1.535,1.524 -4.351,4.315 -5.487,4.806 -4.273,0.003 -8.132,2.312 -10.077,6.064 -1.383,2.668 -1.696,5.453 -0.866,8.778 -14.537,3.16 -20.326,14.212 -21.917,18.035 -5.681,13.651 -2.053,29.542 7.922,34.707 0.49,0.372 2.261,2.575 2.948,14.283 -1.502,11.273 -5.498,21.771 -10.461,27.718 -0.784,-0.008 -1.57,-0.025 -2.344,-0.043 -4.671,-0.112 -9.961,-0.235 -15.375,1.569 -9.017,3.003 -17.243,11.696 -22.007,23.254 -4.002,9.711 -8.786,29.63 1.629,57.496 -0.254,0.154 -0.505,0.311 -0.75,0.473 -0.175,0.111 -0.349,0.226 -0.523,0.343 -2.668,-4.932 -5.965,-8.941 -9.815,-11.927 -2.357,-1.857 -5.087,-3.401 -8.077,-4.558 -2.888,-1.097 -5.946,-1.761 -9.128,-1.989 -5.28,-0.389 -10.901,0.418 -16.692,2.408 -8.878,3.109 -17.148,8.267 -25.319,15.785 -3.957,3.717 -7.196,7.394 -9.952,11.289 -0.393,0.554 -0.774,1.131 -1.149,1.717 l 0.002,0.002 c -0.148,0.232 -0.358,0.576 -0.504,0.83 -0.148,0.25 -0.319,0.588 -0.483,0.926 l -0.055,0.113 c -0.024,0.049 -0.047,0.099 -0.07,0.149 -0.361,0.789 -0.658,1.614 -0.882,2.452 -0.908,3.372 -0.583,7.145 0.897,10.333 1.42,3.105 3.883,5.699 6.922,7.271 1.523,0.798 3.263,1.348 5.004,1.575 0.843,0.114 1.709,0.156 2.548,0.122 0.648,-0.019 1.27,-0.095 1.744,-0.159 0.029,-0.004 0.146,-0.019 0.174,-0.024 3.023,-0.453 6.233,-0.409 9.54,0.129 1.647,0.276 3.221,0.663 4.645,1.147 1.909,0.633 3.372,1.217 4.64,1.85 -12.987,1.167 -29.393,3.555 -43.98,8.392 -5.663,-19.03 -8.72,-39.171 -8.72,-60.017 0,-116.21 94.543,-210.754 210.753,-210.754 116.21,0 210.754,94.544 210.754,210.754 C 7.802,-37.169 5.078,-18.097 0,0 m -365.253,77.429 c 38.688,46.675 97.081,76.457 162.301,76.457 66.621,0 126.112,-31.08 164.761,-79.493 -10.753,-2.137 -24.176,-1.644 -39.484,1.655 -6.014,14 -18.275,22.243 -33.417,22.243 -15.865,0 -32.065,-4.713 -46.365,-8.874 -12.629,-3.675 -21.618,-5.967 -27.41,-6.034 -4.849,-0.058 -5.656,1.295 -6.399,3.527 -0.525,1.575 -1.654,2.877 -3.138,3.619 -1.486,0.742 -3.204,0.865 -4.779,0.339 l -3.463,-1.154 -3.462,1.154 c -3.284,1.096 -6.825,-0.678 -7.916,-3.957 -0.747,-2.24 -1.536,-3.59 -6.485,-3.536 -5.851,0.071 -14.93,2.373 -27.685,6.065 -14.332,4.148 -30.576,8.851 -46.414,8.851 -13.632,0 -24.935,-6.585 -31.45,-18.187 -15.056,-3.487 -28.353,-4.326 -39.195,-2.675"
             style="fill:#ec1e27;fill-opacity:1;fill-rule:nonzero;stroke:none"
             id="path16557" />
        </g>
        <g
           id="g16559"
           transform="translate(539.9531,498.835)">
          <path
             d="m 0,0 c -16.136,22.738 -43.13,37.852 -74.066,41.461 -0.533,0.062 -1.002,0.094 -1.398,0.115 0.364,-0.251 0.803,-0.532 1.314,-0.814 16.678,-9.054 28.194,-19.39 34.243,-30.707 5.768,-10.817 6.134,-21.915 1.033,-32.105 -7.051,-14.102 -21.383,-22.394 -40.825,-24.408 -4.548,-0.48 -9.388,-0.605 -14.467,-0.386 -4.621,0.198 -9.45,0.689 -14.457,1.482 -2.91,0.459 -5.883,1.011 -8.907,1.658 1.762,-10.514 0.584,-22.895 -3.453,-35.015 1.909,-0.365 3.818,-0.709 5.726,-1.033 1.168,2.952 2.201,5.977 3.035,9.075 l 0.387,1.356 0.323,1.366 c 0.208,0.908 0.45,1.826 0.625,2.744 0.345,1.846 0.741,3.702 0.96,5.58 0.584,3.744 0.762,7.562 0.845,11.421 0.887,-3.745 1.69,-7.562 2.086,-11.453 0.261,-1.95 0.355,-3.911 0.49,-5.882 0.053,-0.981 0.053,-1.972 0.084,-2.963 l 0.031,-1.481 -0.031,-1.491 c -0.031,-3.161 -0.25,-6.332 -0.615,-9.513 1.898,-0.25 3.797,-0.48 5.705,-0.688 0.334,0.751 0.657,1.502 0.96,2.273 1.283,3.151 2.409,6.415 3.285,9.763 0.898,3.349 1.627,6.78 2.086,10.264 0.523,3.494 0.689,7.03 0.762,10.629 0.897,-3.463 1.711,-7.01 2.159,-10.619 0.521,-3.619 0.762,-7.291 0.803,-10.983 0.052,-3.713 -0.146,-7.437 -0.574,-11.171 -0.031,-0.334 -0.083,-0.657 -0.125,-0.98 1.596,-0.105 3.181,-0.199 4.778,-0.271 0.136,0.281 0.281,0.563 0.417,0.834 0.657,1.398 1.283,2.827 1.856,4.287 1.158,2.91 2.18,5.935 2.973,9.032 0.804,3.099 1.46,6.269 1.867,9.492 0.48,3.234 0.626,6.509 0.699,9.836 0.897,-3.191 1.721,-6.446 2.232,-9.784 0.574,-3.327 0.876,-6.727 1.022,-10.149 0.147,-3.431 0.052,-6.894 -0.229,-10.377 -0.083,-1.096 -0.209,-2.202 -0.344,-3.317 1.355,0.031 2.712,0.083 4.067,0.135 0.032,0.062 0.063,0.115 0.094,0.177 0.167,0.282 0.323,0.574 0.48,0.887 0.324,0.595 0.616,1.241 0.918,1.867 0.594,1.283 1.158,2.586 1.669,3.932 1.033,2.681 1.94,5.466 2.649,8.313 0.71,2.848 1.304,5.768 1.669,8.731 0.417,2.972 0.553,5.976 0.626,9.032 0.897,-2.899 1.731,-5.882 2.295,-8.928 0.615,-3.056 1.001,-6.164 1.241,-9.314 0.25,-3.161 0.271,-6.352 0.125,-9.565 -0.062,-1.377 -0.178,-2.764 -0.312,-4.152 1.511,0.199 3.035,0.418 4.537,0.668 l -0.501,0.178 c 0.042,0.01 0.125,0.166 0.187,0.271 0.073,0.114 0.136,0.25 0.209,0.375 0.146,0.261 0.292,0.532 0.428,0.803 0.281,0.553 0.542,1.137 0.813,1.711 0.522,1.168 1.023,2.357 1.471,3.588 0.907,2.451 1.711,4.996 2.326,7.593 0.626,2.608 1.157,5.267 1.471,7.979 0.365,2.712 0.49,5.466 0.563,8.251 0.897,-2.629 1.743,-5.319 2.357,-8.094 0.668,-2.764 1.116,-5.591 1.461,-8.47 0.333,-2.868 0.479,-5.789 0.479,-8.74 0,-1.002 -0.042,-1.993 -0.083,-3.004 1.658,0.459 3.296,0.949 4.934,1.491 0.22,0.459 0.437,0.939 0.646,1.419 0.459,1.053 0.887,2.138 1.284,3.254 0.782,2.222 1.47,4.527 2.012,6.895 0.532,2.357 0.991,4.777 1.262,7.228 0.313,2.462 0.428,4.954 0.49,7.479 0.898,-2.347 1.763,-4.756 2.42,-7.25 0.72,-2.471 1.241,-5.017 1.68,-7.614 0.386,-2.326 0.626,-4.683 0.782,-7.082 2.148,1.064 4.245,2.253 6.269,3.536 0.01,0.042 0.01,0.083 0.021,0.125 0.072,0.417 0.114,0.866 0.166,1.304 0.095,0.897 0.157,1.804 0.188,2.733 0.063,1.835 0.041,3.713 -0.104,5.601 -0.156,1.877 -0.386,3.786 -0.751,5.684 -0.345,1.899 -0.835,3.787 -1.388,5.685 1.221,-1.543 2.431,-3.14 3.505,-4.84 1.106,-1.679 2.086,-3.452 3.025,-5.278 0.928,-1.825 1.742,-3.734 2.472,-5.705 0,-0.01 0.011,-0.031 0.011,-0.042 1.564,1.335 3.056,2.743 4.464,4.245 -0.021,0.313 -0.053,0.637 -0.084,0.96 -0.083,0.73 -0.188,1.481 -0.333,2.222 -0.261,1.491 -0.616,3.004 -1.064,4.495 -0.459,1.482 -0.97,2.984 -1.596,4.433 -0.616,1.481 -1.335,2.91 -2.107,4.339 1.241,-1.022 2.493,-2.096 3.661,-3.275 1.178,-1.157 2.285,-2.409 3.359,-3.723 0.971,-1.189 1.856,-2.452 2.721,-3.755 1.232,1.804 2.348,3.681 3.297,5.663 0.24,0.459 0.459,0.908 0.667,1.377 -0.01,0.011 -0.01,0.021 -0.02,0.031 -0.063,0.115 -0.136,0.23 -0.209,0.345 -0.146,0.229 -0.313,0.459 -0.47,0.688 -0.333,0.469 -0.687,0.928 -1.053,1.377 -0.741,0.907 -1.544,1.794 -2.41,2.629 -0.865,0.823 -1.772,1.637 -2.743,2.388 -0.959,0.761 -1.981,1.45 -3.045,2.128 1.231,-0.23 2.472,-0.48 3.702,-0.835 1.232,-0.333 2.442,-0.772 3.652,-1.241 1.21,-0.48 2.398,-1.053 3.566,-1.679 0.334,-0.177 0.648,-0.376 0.971,-0.564 0.114,0.418 0.22,0.835 0.345,1.252 l 0.364,1.367 c 0.115,0.458 0.179,0.928 0.261,1.397 0.156,0.929 0.334,1.857 0.469,2.796 l 0.01,0.146 c -0.072,0.062 -0.145,0.115 -0.219,0.177 -0.156,0.125 -0.323,0.25 -0.49,0.376 -0.344,0.239 -0.688,0.479 -1.054,0.709 -0.729,0.448 -1.491,0.876 -2.284,1.252 -0.792,0.375 -1.606,0.73 -2.461,1.011 -0.846,0.313 -1.711,0.553 -2.608,0.772 0.908,0.125 1.825,0.24 2.765,0.281 0.927,0.063 1.867,0.042 2.826,-0.01 0.949,-0.042 1.898,-0.156 2.869,-0.323 0.302,-0.052 0.604,-0.126 0.917,-0.188 -0.01,0.501 -0.032,1.001 -0.041,1.492 -0.031,0.959 0.009,1.919 -0.147,2.868 l -0.343,2.858 c -0.178,0.949 -0.397,1.888 -0.595,2.826 -0.114,0.47 -0.188,0.96 -0.334,1.419 l -0.448,1.377 c -0.314,0.908 -0.533,1.878 -0.939,2.754 -1.398,3.64 -3.411,7.03 -5.664,10.263 2.565,-2.972 4.954,-6.185 6.759,-9.773 0.512,-0.866 0.824,-1.815 1.252,-2.722 l 0.604,-1.388 c 0.209,-0.458 0.324,-0.949 0.489,-1.418 0.315,-0.96 0.648,-1.919 0.93,-2.89 l 0.667,-2.962 c 0.261,-0.98 0.323,-1.992 0.47,-3.004 0.115,-1.012 0.292,-2.023 0.281,-3.045 l 0.084,-3.067 c -0.042,-1.022 -0.125,-2.045 -0.198,-3.077 -0.042,-0.511 -0.052,-1.022 -0.125,-1.533 l -0.251,-1.523 c -0.188,-1.012 -0.292,-2.044 -0.553,-3.046 -0.521,-1.992 -1.001,-4.026 -1.794,-5.945 -2.805,-7.834 -7.77,-14.812 -13.747,-20.611 -5.976,-5.82 -13.017,-10.493 -20.465,-14.133 -14.967,-7.26 -31.375,-10.806 -47.677,-12.245 -15.896,-1.346 -31.844,-0.856 -47.584,0.834 -1.659,-2.66 -3.452,-5.163 -5.362,-7.499 0.409,-0.115 0.814,-0.261 1.221,-0.397 0.344,-0.104 0.689,-0.208 1.032,-0.334 1.533,-0.469 3.046,-1.158 4.537,-1.794 1.472,-0.751 2.942,-1.471 4.34,-2.399 2.795,-1.762 5.351,-3.953 7.468,-6.425 2.117,-2.462 3.786,-5.163 5.152,-7.843 2.786,-5.351 4.246,-10.838 7.417,-14.802 1.606,-1.919 3.776,-3.389 6.414,-3.952 2.619,-0.627 5.477,-0.584 8.293,-0.281 -2.691,-0.856 -5.518,-1.524 -8.511,-1.441 -0.751,-0.03 -1.502,0.145 -2.264,0.22 -0.74,0.178 -1.502,0.334 -2.231,0.615 -1.482,0.521 -2.848,1.366 -4.111,2.326 -2.451,1.992 -4.287,4.464 -5.976,6.82 -1.669,2.37 -3.223,4.685 -4.881,6.75 -1.659,2.075 -3.432,3.89 -5.362,5.362 -1.929,1.47 -4.015,2.586 -6.227,3.41 -1.074,0.438 -2.253,0.72 -3.39,1.032 -1.189,0.219 -2.337,0.49 -3.578,0.595 -0.459,0.062 -0.928,0.104 -1.397,0.146 3.547,-4.412 6.331,-9.085 8.782,-13.82 0.96,-1.305 1.898,-2.619 2.847,-3.922 2.504,-3.515 4.914,-7.083 7.291,-10.671 0.293,-0.459 0.595,-0.897 0.867,-1.283 0.281,-0.417 0.562,-0.813 0.865,-1.199 0.584,-0.782 1.21,-1.523 1.856,-2.232 1.284,-1.419 2.723,-2.629 4.236,-3.63 3.035,-2.024 6.498,-3.004 10.106,-3.045 3.61,-0.032 7.344,0.802 10.943,2.2 3.598,1.419 7.124,3.307 10.43,5.55 3.327,2.231 6.508,4.756 9.44,7.519 2.93,2.754 5.694,5.727 7.947,8.877 l 0.824,1.178 0.105,0.146 c 0.01,0.021 0.01,0.032 0.02,0.042 0.022,0.033 0.042,0.074 0.011,0.188 -0.031,0.104 -0.114,0.22 -0.178,0.261 -0.031,0.031 -0.062,0.043 -0.103,0.052 -0.022,0.01 -0.042,0.01 -0.084,0.021 -0.052,0 0.01,0.011 -0.386,-0.021 -9.44,-1.043 -19.119,1.251 -27.015,5.966 -1.002,0.573 -1.951,1.198 -2.921,1.836 -0.98,0.679 -1.918,1.388 -2.794,2.128 -1.774,1.47 -3.391,2.993 -4.924,4.537 -3.067,3.056 -5.904,6.081 -9.126,8.532 -1.586,1.252 -3.276,2.347 -5.08,3.244 -1.794,0.897 -3.713,1.544 -5.705,2.023 -4.006,0.96 -8.293,0.908 -12.58,0.438 2.034,0.73 4.13,1.284 6.29,1.69 2.159,0.365 4.391,0.491 6.633,0.365 4.506,-0.219 8.981,-1.783 12.903,-4.036 0.323,-0.188 0.626,-0.407 0.938,-0.595 16.961,0.167 48.252,2.618 69.165,11.505 22.154,9.408 36.695,24.355 42.045,43.224 C 12.454,-29.925 7.197,-10.16 0,0 m -129.953,-40.815 c -2.941,9.45 -9.054,14.248 -18.159,14.248 -13.341,0 -27.611,-4.151 -41.409,-8.167 -6.53,-1.909 -12.862,-3.745 -18.796,-5.027 -11.849,-7.218 -24.074,-15.573 -29.435,-20.236 -8.814,4.966 -26.974,14.707 -40.575,21.957 -3.828,1.012 -7.781,2.148 -11.818,3.317 -13.841,4.005 -28.162,8.156 -41.481,8.156 -9.106,0 -15.219,-4.798 -18.15,-14.248 -4.954,-15.948 0.877,-41.982 15.302,-57.962 0.469,-0.042 1.085,0 1.763,0.136 0.698,0.125 1.47,0.333 2.253,0.594 3.181,1.064 6.55,2.806 9.856,4.642 6.655,3.734 13.289,7.948 20.163,11.797 6.873,3.838 14.018,7.437 21.664,9.731 3.817,1.127 7.77,1.898 11.744,1.982 3.965,0.094 7.959,-0.563 11.547,-2.097 -3.744,1.127 -7.666,1.304 -11.453,0.793 -3.786,-0.511 -7.457,-1.648 -10.962,-3.129 -7.03,-3.004 -13.476,-7.207 -19.735,-11.682 -6.279,-4.495 -12.308,-9.346 -18.775,-13.998 -1.147,-0.803 -2.305,-1.617 -3.494,-2.399 1.784,0.115 3.568,0.063 5.288,-0.198 5.195,-0.782 9.649,-2.973 13.393,-5.476 3.797,-2.493 6.957,-5.424 9.878,-8.418 5.82,-6.007 10.514,-12.516 15.061,-18.878 2.233,-3.203 4.412,-6.384 6.614,-9.409 1.105,-1.512 2.191,-3.004 3.295,-4.36 0.429,-0.521 0.856,-1.022 1.273,-1.491 0.678,-0.751 1.335,-1.428 1.93,-1.94 0.208,-0.166 0.448,-0.365 0.584,-0.449 l 0.114,-0.082 c 0.021,-0.012 0.041,-0.022 0.063,-0.033 0.021,-0.021 0.042,-0.031 0.053,-0.051 0.041,-0.022 0.134,-0.053 0.197,-0.084 0.584,-0.24 1.189,-0.428 1.836,-0.563 1.283,-0.251 2.67,-0.282 4.068,-0.042 2.796,0.459 5.612,1.825 7.772,3.984 2.189,2.139 3.763,4.997 4.473,8.23 0.751,3.233 0.636,6.81 -0.062,10.357 -0.73,3.547 -1.971,7.123 -3.652,10.535 -0.843,1.711 -1.73,3.411 -2.7,5.08 -0.981,1.669 -2.034,3.296 -3.098,4.933 2.899,-2.607 5.643,-5.455 8.031,-8.636 2.076,-2.785 3.995,-5.789 5.424,-9.095 1.408,3.306 3.306,6.289 5.361,9.074 2.389,3.202 5.132,6.05 8.032,8.657 -1.064,-1.637 -2.117,-3.264 -3.097,-4.933 -0.971,-1.68 -1.858,-3.38 -2.703,-5.089 -1.668,-3.423 -2.888,-7 -3.598,-10.557 -0.689,-3.546 -0.751,-7.124 0.031,-10.348 0.762,-3.222 2.379,-6.069 4.601,-8.187 2.19,-2.149 5.027,-3.525 7.853,-4.005 1.408,-0.229 2.817,-0.219 4.1,0.031 0.646,0.125 1.262,0.313 1.845,0.542 0.408,0.167 0.251,0.146 0.459,0.261 l 0.251,0.177 0.324,0.262 c 0.562,0.469 1.199,1.115 1.856,1.836 0.438,0.49 0.887,1.011 1.324,1.553 1.117,1.357 2.191,2.848 3.307,4.351 2.201,3.024 4.381,6.215 6.624,9.418 4.547,6.373 9.241,12.881 15.061,18.9 2.92,2.993 6.082,5.934 9.868,8.438 3.744,2.503 8.198,4.704 13.382,5.497 1.742,0.261 3.536,0.323 5.33,0.208 -0.772,0.522 -1.523,1.054 -2.274,1.575 -6.112,4.413 -11.756,9.012 -17.67,13.226 -5.903,4.193 -11.995,8.126 -18.68,10.775 -3.328,1.314 -6.812,2.294 -10.4,2.649 -3.577,0.376 -7.26,0.104 -10.795,-0.939 3.379,1.45 7.103,2.191 10.848,2.243 3.755,0.073 7.519,-0.521 11.16,-1.481 7.302,-1.93 14.112,-5.257 20.642,-8.825 6.53,-3.577 12.799,-7.562 19.078,-11.024 3.108,-1.711 6.289,-3.317 9.22,-4.204 1.294,-0.396 2.524,-0.563 3.348,-0.501 14.52,15.97 20.392,42.108 15.427,58.098 m -40.001,-125.737 c 1.412,0 2.557,1.145 2.557,2.557 0,1.412 -1.145,2.556 -2.557,2.556 -1.412,0 -2.557,-1.144 -2.557,-2.556 0,-1.412 1.145,-2.557 2.557,-2.557 m -34.39,-7.7 c -0.145,-2.545 0.272,-7.739 3.255,-11.797 2.9,-3.953 7.655,-5.966 14.144,-5.997 h 0.094 c 12.485,0 20.621,8.773 26.639,18.399 -2.962,-1.262 -6.143,-2.117 -9.283,-2.315 -17.367,-1.085 -18.649,8.354 -34.849,1.71 m -1.929,6.863 c -0.333,-1.428 -0.647,-2.931 -0.939,-4.495 l 2.097,-0.699 c 5.82,10.994 25.867,25.273 54.906,17.18 1.418,2.377 2.764,4.162 4.318,5.299 -0.219,0.02 -0.438,0.02 -0.647,0.04 -2.222,0.157 -4.317,0.46 -6.341,0.804 -4.037,0.677 -7.812,1.564 -11.526,2.191 -3.702,0.614 -7.312,1.105 -10.859,1.052 -3.535,-0.031 -7.008,-0.531 -10.295,-1.731 -3.294,-1.157 -6.393,-3.024 -9.199,-5.403 -4.558,-3.828 -8.26,-8.845 -11.515,-14.238 m 64.721,28.966 c 1.304,0.334 2.264,0.761 3.067,1.366 -1.179,2.075 -2.409,4.111 -3.713,6.05 -1.992,2.982 -4.111,5.82 -6.415,8.219 -2.305,2.42 -4.788,4.381 -7.238,5.591 -2.473,1.199 -4.831,1.544 -7.344,1.178 -2.514,-0.344 -5.268,-1.533 -7.958,-3.306 -2.692,-1.773 -5.352,-4.037 -7.906,-6.519 -5.101,-5.05 -9.858,-10.899 -14.593,-16.949 -0.5,-0.626 -1.001,-1.252 -1.502,-1.889 -1.231,-1.846 -2.451,-3.786 -3.63,-5.788 0.187,0.241 0.386,0.479 0.584,0.719 2.66,3.223 6.029,6.029 9.878,8.105 3.859,2.055 8.157,3.317 12.433,3.859 8.584,1.126 16.908,-0.219 24.386,-0.866 3.703,-0.332 7.302,-0.386 9.951,0.23 m -0.365,-21.404 c -1.074,-1.783 -2.389,-4.319 -3.525,-6.519 -6.79,-13.121 -18.139,-35.078 -41.399,-35.088 h -0.135 c -12.121,0.052 -18.567,5.487 -21.832,10.036 -0.292,0.416 -0.573,0.843 -0.834,1.26 -1.137,-13.789 -0.897,-28.85 1.7,-40.595 1.575,-7.081 3.912,-11.964 6.53,-13.727 0.281,0.136 0.562,0.261 0.834,0.387 11.225,24.292 25.002,23.979 36.173,23.728 3.817,-0.092 7.416,-0.176 10.42,0.824 3.714,1.232 9.377,5.894 13.111,14.959 3.182,7.708 6.603,22.852 -1.043,44.735 m -44.736,-125.385 c -0.856,-1.115 -2.868,-3.452 -6.196,-5.632 3.359,-2.607 5.924,-5.925 5.434,-10.023 -0.573,-4.809 -5.069,-8.501 -14.258,-11.6 -1.241,-0.886 -2.473,-1.689 -3.682,-2.409 12.714,-2.868 21.581,0.198 25.19,8.877 3.076,7.385 0.772,15.124 -1.158,16.125 -2.201,1.147 -3.953,2.743 -5.33,4.662 m -17.461,-48.042 c -1.282,2.033 -3.296,4.902 -5.487,7.875 -0.719,-7.978 -4.568,-15.061 -10.295,-20.017 2.253,1.502 3.975,3.079 5.738,4.694 2.596,2.39 5.475,5.028 10.044,7.448 m -61.384,-4.61 c -2.628,4.465 -4.15,9.669 -4.15,15.218 0,0.114 0.009,0.24 0.02,0.354 -0.407,-0.114 -0.804,-0.208 -1.199,-0.312 -2.003,-2.828 -3.86,-5.79 -4.997,-7.917 3.902,-1.251 7.094,-4.163 10.326,-7.343 m -7.134,23.395 c 0.031,0.125 0.052,0.24 0.084,0.365 -12.955,3.412 -19.088,7.551 -19.777,13.237 -0.49,4.098 2.076,7.416 5.435,10.023 -3.328,2.18 -5.34,4.517 -6.186,5.632 -1.387,-1.919 -3.139,-3.515 -5.34,-4.662 -1.93,-1.001 -4.224,-8.74 -1.158,-16.125 3.776,-9.075 13.278,-12.025 26.942,-8.47 m 82.631,36.362 c -1.784,5.964 -2.087,12.995 -2.357,19.211 -0.126,3.004 -0.292,6.906 -0.71,8.909 -0.344,-0.105 -0.751,-0.261 -1.189,-0.428 -0.021,-0.053 -0.042,-0.094 -0.062,-0.147 l -0.157,0.063 c -1.586,-0.646 -3.609,-1.616 -5.382,-2.461 -8.96,-4.277 -22.489,-10.732 -39.458,-9.909 -16.856,-0.823 -30.782,5.591 -40.002,9.836 -1.93,0.888 -4.151,1.908 -5.862,2.565 l -0.229,-0.094 c -0.031,0.074 -0.063,0.147 -0.094,0.219 -0.428,0.157 -0.824,0.293 -1.168,0.387 -0.407,-1.992 -0.584,-5.925 -0.709,-8.94 -0.272,-6.216 -0.574,-13.247 -2.358,-19.211 14.269,0.573 33.325,-7.344 43.704,-18.245 2.701,-2.835 4.757,-5.809 6.164,-8.855 1.408,3.046 3.474,6.02 6.165,8.855 10.378,10.901 29.487,18.829 43.704,18.245 m -77.561,-44.539 c 0,-15.438 12.568,-28.006 28.005,-28.006 15.448,0 28.006,12.568 28.006,28.006 0,9.084 -4.381,17.543 -11.755,22.8 -2.003,-2.451 -3.379,-5.716 -3.953,-9.324 3.796,-3.463 5.955,-8.345 5.955,-13.476 0,-10.066 -8.187,-18.252 -18.253,-18.252 -10.065,0 -18.253,8.186 -18.253,18.252 0,6.124 2.983,11.692 8.021,15.092 -1.721,2.89 -3.525,5.633 -5.861,7.825 -7.469,-5.258 -11.912,-13.77 -11.912,-22.917 m 31.312,-1.054 c -1.555,0.971 -2.732,1.846 -3.62,2.702 -0.886,-0.856 -2.065,-1.731 -3.608,-2.702 -0.334,-0.197 -5.998,-3.682 -11.015,-5.101 2.42,-5.872 8.198,-10.011 14.936,-10.011 6.676,0 12.423,4.066 14.884,9.855 -5.152,1.304 -11.233,5.049 -11.577,5.257 m -27.4,91.163 c -1.514,-6.801 -3.683,-11.964 -6.478,-15.48 8.28,-3.577 18.607,-7.132 30.592,-6.518 0.145,-0.011 0.292,-0.022 0.438,-0.022 0.845,-0.031 1.679,-0.05 2.514,-0.05 9.231,0.03 17.502,2.429 24.293,5.182 0.97,0.397 1.919,0.804 2.837,1.21 -2.879,3.527 -5.101,8.752 -6.634,15.678 -4.099,18.534 -3.004,49.742 2.232,69.539 -0.24,-0.083 -0.459,-0.155 -0.616,-0.187 -1.272,-0.355 -2.565,-0.586 -3.837,-0.677 -2.567,-0.209 -5.09,0.072 -7.459,0.729 -4.735,1.314 -8.834,4.151 -11.796,7.812 -0.929,1.158 -1.722,2.41 -2.411,3.714 -0.656,-1.283 -1.418,-2.524 -2.325,-3.671 -2.921,-3.704 -7.03,-6.582 -11.798,-7.875 -2.366,-0.659 -4.912,-0.929 -7.478,-0.7 -1.281,0.104 -2.567,0.344 -3.826,0.709 -0.158,0.041 -0.293,0.075 -0.471,0.136 5.227,-19.797 6.331,-50.995 2.223,-69.529 m -15.584,-11.38 c 0.344,-0.145 0.688,-0.292 1.032,-0.448 2.566,1.825 4.861,6.665 6.405,13.632 2.597,11.745 2.837,26.806 1.699,40.595 -0.259,-0.417 -0.531,-0.844 -0.834,-1.26 -3.263,-4.549 -9.7,-9.984 -21.82,-10.036 h -0.146 c -23.26,0 -34.608,21.956 -41.399,35.088 -1.137,2.2 -2.441,4.736 -3.525,6.519 -7.646,-21.883 -4.225,-37.027 -1.043,-44.735 3.734,-9.065 9.398,-13.727 13.121,-14.959 2.994,-1 6.602,-0.916 10.41,-0.824 11.15,0.261 24.887,0.564 36.1,-23.572 m -1.721,93.447 c -1.179,2.002 -2.399,3.942 -3.63,5.788 -0.511,0.657 -1.033,1.304 -1.544,1.95 -4.746,6.04 -9.502,11.892 -14.592,16.93 -2.545,2.483 -5.205,4.735 -7.896,6.498 -2.691,1.773 -5.445,2.962 -7.959,3.285 -2.503,0.366 -4.86,0.011 -7.332,-1.189 -2.451,-1.22 -4.934,-3.17 -7.228,-5.59 -2.305,-2.41 -4.412,-5.236 -6.415,-8.221 -1.294,-1.939 -2.524,-3.963 -3.703,-6.038 0.803,-0.605 1.773,-1.032 3.077,-1.366 2.649,-0.616 6.238,-0.562 9.951,-0.23 7.478,0.647 15.791,1.992 24.376,0.866 4.276,-0.542 8.574,-1.804 12.433,-3.859 3.849,-2.076 7.218,-4.882 9.888,-8.105 0.198,-0.24 0.386,-0.478 0.574,-0.719 m 6.331,-22.124 2.106,0.71 c -0.3,1.564 -0.614,3.067 -0.948,4.495 -3.255,5.393 -6.957,10.41 -11.505,14.238 -2.816,2.379 -5.914,4.246 -9.21,5.403 -3.286,1.2 -6.749,1.7 -10.295,1.731 -3.546,0.053 -7.155,-0.438 -10.858,-1.052 -3.713,-0.627 -7.479,-1.514 -11.526,-2.191 -2.013,-0.344 -4.11,-0.647 -6.342,-0.804 -0.208,-0.02 -0.427,-0.02 -0.636,-0.04 1.544,-1.137 2.9,-2.922 4.308,-5.299 29.038,8.093 49.086,-6.186 54.906,-17.191 m -33.882,6.042 c 1.412,0 2.557,1.145 2.557,2.557 0,1.412 -1.145,2.556 -2.557,2.556 -1.411,0 -2.556,-1.144 -2.556,-2.556 0,-1.412 1.145,-2.557 2.556,-2.557 m -11.021,-7.095 c 6.018,-9.626 14.154,-18.399 26.639,-18.399 h 0.094 c 6.488,0.031 11.244,2.044 14.154,5.997 2.973,4.058 3.401,9.252 3.244,11.797 -16.198,6.644 -17.481,-2.795 -34.848,-1.71 -3.14,0.198 -6.311,1.053 -9.283,2.315 m -20.861,57.399 c -1.367,-0.031 -2.712,-0.105 -4.027,-0.292 -1.23,-0.105 -2.377,-0.376 -3.577,-0.595 -1.127,-0.312 -2.305,-0.594 -3.39,-1.032 -2.211,-0.824 -4.297,-1.94 -6.217,-3.41 -1.929,-1.472 -3.702,-3.287 -5.361,-5.362 -1.669,-2.065 -3.223,-4.38 -4.892,-6.75 -1.679,-2.356 -3.525,-4.828 -5.977,-6.82 -1.251,-0.96 -2.617,-1.805 -4.099,-2.326 -0.73,-0.281 -1.502,-0.437 -2.242,-0.615 -0.762,-0.075 -1.502,-0.25 -2.253,-0.22 -2.994,-0.083 -5.82,0.585 -8.512,1.441 2.807,-0.303 5.664,-0.346 8.283,0.281 2.649,0.563 4.819,2.033 6.414,3.952 3.171,3.964 4.642,9.451 7.416,14.802 1.366,2.68 3.035,5.381 5.163,7.843 2.117,2.472 4.673,4.663 7.469,6.425 1.387,0.928 2.857,1.648 4.338,2.399 1.492,0.636 3.005,1.325 4.527,1.794 0.345,0.126 0.7,0.23 1.044,0.334 0.396,0.136 0.792,0.271 1.189,0.386 -2.702,3.306 -5.174,6.947 -7.364,10.879 -15.218,-1.554 -30.635,-1.982 -45.988,-0.678 -16.303,1.439 -32.71,4.986 -47.688,12.246 -7.448,3.64 -14.478,8.313 -20.465,14.132 -5.966,5.8 -10.942,12.778 -13.748,20.611 -0.792,1.92 -1.261,3.953 -1.794,5.946 -0.26,0.991 -0.365,2.034 -0.552,3.045 l -0.251,1.523 c -0.073,0.501 -0.083,1.022 -0.125,1.534 -0.062,1.032 -0.156,2.054 -0.198,3.076 l 0.083,3.067 c -0.01,1.022 0.178,2.034 0.282,3.046 0.146,1.001 0.209,2.024 0.469,3.004 l 0.668,2.962 c 0.292,0.97 0.616,1.93 0.928,2.89 0.167,0.469 0.292,0.959 0.49,1.418 l 0.605,1.387 c 0.428,0.907 0.751,1.857 1.252,2.722 1.804,3.589 4.193,6.791 6.769,9.774 -2.263,-3.234 -4.276,-6.624 -5.663,-10.264 -0.417,-0.887 -0.626,-1.846 -0.95,-2.753 l -0.438,-1.387 c -0.156,-0.449 -0.219,-0.939 -0.334,-1.409 -0.197,-0.949 -0.427,-1.877 -0.604,-2.826 l -0.344,-2.858 c -0.157,-0.949 -0.115,-1.909 -0.147,-2.869 -0.01,-0.49 -0.031,-0.991 -0.031,-1.492 0.303,0.063 0.605,0.136 0.918,0.188 0.96,0.167 1.909,0.282 2.869,0.324 0.949,0.052 1.887,0.073 2.826,0.01 0.929,-0.042 1.846,-0.156 2.754,-0.281 -0.897,-0.22 -1.763,-0.459 -2.608,-0.772 -0.855,-0.282 -1.669,-0.637 -2.462,-1.012 -0.792,-0.376 -1.554,-0.803 -2.284,-1.252 -0.365,-0.229 -0.709,-0.469 -1.053,-0.709 -0.167,-0.125 -0.334,-0.251 -0.49,-0.376 -0.073,-0.062 -0.146,-0.114 -0.219,-0.177 l 0.01,-0.146 c 0.136,-0.939 0.323,-1.867 0.469,-2.795 0.094,-0.469 0.146,-0.939 0.261,-1.398 l 0.376,-1.366 c 0.114,-0.417 0.218,-0.835 0.333,-1.252 0.323,0.188 0.647,0.386 0.97,0.563 1.169,0.626 2.358,1.189 3.568,1.679 1.21,0.47 2.42,0.908 3.661,1.242 1.22,0.355 2.461,0.605 3.692,0.834 -1.064,-0.678 -2.086,-1.366 -3.046,-2.127 -0.97,-0.752 -1.877,-1.565 -2.743,-2.389 -0.865,-0.834 -1.658,-1.721 -2.409,-2.628 -0.365,-0.449 -0.72,-0.908 -1.054,-1.377 -0.156,-0.23 -0.323,-0.459 -0.469,-0.689 -0.073,-0.115 -0.146,-0.229 -0.209,-0.344 -0.01,-0.01 -0.01,-0.021 -0.02,-0.031 0.208,-0.47 0.427,-0.929 0.667,-1.377 0.949,-1.982 2.065,-3.86 3.306,-5.664 0.856,1.304 1.753,2.566 2.723,3.755 1.064,1.304 2.169,2.566 3.358,3.724 1.158,1.178 2.41,2.253 3.661,3.275 -0.772,-1.429 -1.501,-2.858 -2.106,-4.339 -0.637,-1.45 -1.148,-2.952 -1.607,-4.433 -0.448,-1.492 -0.792,-3.004 -1.063,-4.496 -0.136,-0.74 -0.241,-1.491 -0.324,-2.221 -0.031,-0.324 -0.063,-0.647 -0.084,-0.96 1.398,-1.502 2.89,-2.91 4.454,-4.245 0,0.01 0.011,0.031 0.011,0.042 0.74,1.971 1.544,3.88 2.482,5.705 0.928,1.825 1.909,3.598 3.025,5.278 1.074,1.7 2.274,3.296 3.494,4.839 -0.553,-1.898 -1.043,-3.786 -1.377,-5.694 -0.375,-1.889 -0.594,-3.797 -0.75,-5.675 -0.157,-1.887 -0.178,-3.765 -0.115,-5.601 0.031,-0.928 0.104,-1.836 0.188,-2.733 0.052,-0.438 0.104,-0.886 0.167,-1.314 0.01,-0.042 0.021,-0.073 0.021,-0.114 2.033,-1.284 4.119,-2.473 6.278,-3.537 0.146,2.399 0.387,4.757 0.783,7.083 0.438,2.586 0.96,5.131 1.668,7.614 0.658,2.483 1.523,4.903 2.42,7.249 0.063,-2.524 0.178,-5.017 0.491,-7.478 0.271,-2.451 0.74,-4.871 1.262,-7.229 0.542,-2.367 1.231,-4.673 2.023,-6.894 0.386,-1.117 0.825,-2.201 1.273,-3.255 0.219,-0.48 0.427,-0.959 0.657,-1.418 1.627,-0.543 3.275,-1.033 4.934,-1.492 -0.053,1.002 -0.084,2.003 -0.084,3.004 -0.01,2.952 0.136,5.862 0.48,8.741 0.334,2.879 0.782,5.705 1.45,8.47 0.615,2.774 1.47,5.465 2.367,8.094 0.063,-2.785 0.188,-5.539 0.553,-8.251 0.324,-2.712 0.845,-5.372 1.471,-7.979 0.616,-2.597 1.418,-5.142 2.326,-7.594 0.448,-1.23 0.949,-2.419 1.471,-3.588 0.271,-0.574 0.531,-1.158 0.813,-1.71 0.146,-0.271 0.282,-0.543 0.428,-0.804 0.073,-0.125 0.146,-0.26 0.208,-0.375 0.074,-0.105 0.146,-0.261 0.188,-0.271 l -0.501,-0.177 c 1.513,-0.251 3.025,-0.47 4.538,-0.668 -0.136,1.387 -0.25,2.775 -0.313,4.141 -0.146,3.223 -0.115,6.414 0.125,9.565 0.251,3.16 0.626,6.268 1.241,9.325 0.564,3.045 1.398,6.028 2.295,8.928 0.073,-3.056 0.209,-6.06 0.636,-9.033 0.355,-2.973 0.95,-5.883 1.659,-8.73 0.709,-2.848 1.616,-5.633 2.649,-8.313 0.511,-1.346 1.085,-2.66 1.669,-3.933 0.302,-0.636 0.605,-1.272 0.918,-1.867 0.156,-0.313 0.323,-0.605 0.479,-0.886 0.032,-0.063 0.074,-0.115 0.105,-0.178 1.356,-0.062 2.712,-0.104 4.068,-0.135 -0.146,1.116 -0.261,2.222 -0.355,3.317 -0.281,3.484 -0.375,6.947 -0.219,10.378 0.136,3.421 0.449,6.822 1.023,10.149 0.5,3.338 1.324,6.592 2.221,9.784 0.073,-3.328 0.23,-6.603 0.699,-9.836 0.407,-3.223 1.074,-6.394 1.877,-9.492 0.793,-3.098 1.805,-6.123 2.963,-9.033 0.574,-1.46 1.21,-2.889 1.856,-4.287 0.146,-0.271 0.282,-0.552 0.418,-0.834 1.595,0.073 3.191,0.167 4.777,0.271 -0.042,0.323 -0.084,0.647 -0.125,0.98 -0.418,3.735 -0.626,7.458 -0.574,11.172 0.041,3.692 0.282,7.364 0.803,10.983 0.448,3.609 1.262,7.155 2.159,10.618 0.073,-3.598 0.24,-7.134 0.772,-10.628 0.448,-3.484 1.178,-6.916 2.075,-10.264 0.887,-3.348 2.003,-6.613 3.286,-9.763 0.303,-0.772 0.636,-1.523 0.97,-2.274 1.899,0.209 3.797,0.438 5.695,0.689 -0.365,3.181 -0.584,6.352 -0.615,9.512 l -0.031,1.481 0.031,1.492 c 0.031,0.991 0.031,1.971 0.083,2.962 0.146,1.972 0.23,3.933 0.501,5.873 0.386,3.9 1.2,7.718 2.086,11.462 0.073,-3.858 0.25,-7.676 0.835,-11.421 0.219,-1.877 0.615,-3.734 0.959,-5.58 0.177,-0.918 0.428,-1.836 0.626,-2.743 l 0.323,-1.367 0.386,-1.356 c 0.835,-3.098 1.867,-6.122 3.035,-9.074 1.69,0.292 3.39,0.594 5.08,0.917 -3.598,12.507 -4.183,25.076 -1.617,35.392 -8.688,-1.941 -16.907,-3.067 -24.563,-3.401 -5.08,-0.229 -9.909,-0.094 -14.457,0.376 -19.432,2.012 -33.774,10.305 -40.825,24.417 -5.101,10.191 -4.735,21.289 1.033,32.105 6.05,11.317 17.565,21.654 34.243,30.708 0.521,0.281 0.949,0.552 1.314,0.813 -0.396,-0.021 -0.865,-0.052 -1.398,-0.115 -30.936,-3.609 -57.93,-18.722 -74.066,-41.461 -7.197,-10.159 -12.444,-29.925 -6.947,-49.325 5.341,-18.869 19.881,-33.816 42.035,-43.235 25.419,-10.796 66.171,-12.089 77.874,-11.327 1.825,0.511 3.692,0.855 5.57,0.938 2.242,0.126 4.474,0 6.634,-0.365 2.159,-0.406 4.266,-0.96 6.289,-1.69 -4.276,0.47 -8.574,0.522 -12.569,-0.438 -1.992,-0.479 -3.911,-1.126 -5.716,-2.023 -1.804,-0.897 -3.483,-1.992 -5.079,-3.244 -3.213,-2.451 -6.06,-5.476 -9.127,-8.532 -1.523,-1.544 -3.139,-3.067 -4.913,-4.537 -0.876,-0.74 -1.815,-1.449 -2.795,-2.128 -0.981,-0.638 -1.919,-1.263 -2.931,-1.836 -7.896,-4.715 -17.565,-7.009 -27.005,-5.966 -0.406,0.032 -0.344,0.021 -0.396,0.021 -0.031,-0.011 -0.063,-0.011 -0.083,-0.021 -0.042,-0.009 -0.063,-0.021 -0.094,-0.052 -0.063,-0.041 -0.157,-0.157 -0.188,-0.261 -0.031,-0.114 -0.01,-0.155 0.01,-0.188 0.011,-0.01 0.021,-0.021 0.032,-0.042 l 0.104,-0.146 0.814,-1.178 c 2.252,-3.15 5.027,-6.123 7.958,-8.877 2.931,-2.763 6.102,-5.288 9.429,-7.519 3.317,-2.243 6.832,-4.131 10.431,-5.55 3.609,-1.398 7.343,-2.232 10.952,-2.2 3.608,0.041 7.072,1.021 10.096,3.045 1.523,1.001 2.952,2.211 4.235,3.63 0.647,0.709 1.273,1.45 1.857,2.232 0.302,0.386 0.594,0.782 0.866,1.199 0.281,0.386 0.574,0.824 0.876,1.283 2.367,3.588 4.777,7.156 7.28,10.671 2.524,3.494 5.038,6.999 7.75,10.358 2.076,2.576 4.172,5.173 6.509,7.53 m 353.771,65.097 c -4.12,-14.561 -15.427,-34.63 -45.863,-47.563 -18.806,-7.99 -44.788,-10.994 -63.011,-11.807 0.323,-0.251 0.638,-0.512 0.949,-0.762 1.659,-1.325 3.265,-2.629 4.902,-3.745 0.825,-0.563 1.649,-1.074 2.483,-1.543 0.855,-0.449 1.742,-0.96 2.629,-1.377 1.773,-0.887 3.619,-1.586 5.475,-2.202 1.858,-0.625 3.745,-1.073 5.654,-1.397 3.807,-0.615 7.687,-0.709 11.473,-0.135 0.125,0.01 0.72,0.105 1.21,0.115 0.501,0.02 1.012,0 1.513,-0.074 1.022,-0.135 2.034,-0.448 2.941,-0.928 1.836,-0.95 3.276,-2.502 4.12,-4.349 0.856,-1.836 1.075,-4.047 0.533,-6.082 -0.136,-0.51 -0.314,-1 -0.533,-1.459 -0.104,-0.23 -0.218,-0.47 -0.344,-0.679 -0.115,-0.198 -0.282,-0.49 -0.344,-0.573 -0.323,-0.501 -0.646,-1.001 -0.98,-1.481 -2.712,-3.829 -5.779,-7.187 -9.086,-10.295 -6.654,-6.123 -14.237,-11.359 -23.114,-14.478 -4.422,-1.513 -9.252,-2.44 -14.216,-2.076 -2.472,0.179 -4.955,0.688 -7.312,1.576 -2.347,0.907 -4.559,2.148 -6.498,3.671 -3.901,3.025 -6.718,7.094 -8.72,11.057 l -3.358,6.383 c -1.408,-2.086 -3.266,-4.1 -5.57,-5.57 -1.712,-1.127 -3.568,-1.888 -5.393,-2.399 12.401,-28.579 7.948,-48.648 3.922,-58.421 -4.078,-9.899 -10.879,-17.263 -18.201,-19.693 -4.381,-1.459 -8.887,-1.356 -13.247,-1.25 -1.763,0.041 -3.504,0.072 -5.237,0.009 -7.123,-6.843 -12.307,-20.308 -13.997,-33.712 0.448,-8.217 1.513,-17.564 6.352,-20.068 6.958,-3.607 9.345,-16.354 5.028,-26.743 -1.815,-4.371 -8.646,-16.448 -27.714,-14.904 6.362,-9.024 5.935,-10.651 5.549,-12.132 -0.354,-1.357 -1.304,-2.441 -2.576,-2.973 -5.486,-2.295 -8.189,-4.767 -11.318,-7.636 -4.171,-3.827 -8.897,-8.167 -20.212,-11.546 -0.774,-0.229 -1.483,-0.459 -2.161,-0.668 -3.098,-0.99 -5.612,-1.7 -8.615,-1.7 -3.297,0 -7.187,0.856 -13.101,3.171 -8.011,3.14 -13.383,8.459 -17.69,12.736 -4.183,4.141 -6.885,6.655 -9.753,6.624 -2.013,-0.032 -3.776,0.969 -4.662,2.68 -0.678,1.316 -1.815,3.515 2.806,11.319 -17.294,-0.409 -23.636,10.846 -25.367,15.029 -4.329,10.389 -1.94,23.136 5.017,26.743 4.85,2.504 5.903,11.851 6.352,20.068 -1.69,13.404 -6.874,26.869 -13.998,33.712 -1.721,0.063 -3.473,0.032 -5.236,-0.009 -4.36,-0.106 -8.866,-0.209 -13.247,1.25 -7.311,2.43 -14.123,9.794 -18.201,19.704 -4.026,9.762 -8.48,29.831 3.922,58.41 -1.825,0.511 -3.682,1.272 -5.393,2.399 -2.295,1.46 -4.14,3.474 -5.549,5.539 l -3.337,-6.352 c -2.003,-3.963 -4.819,-8.032 -8.72,-11.057 -1.941,-1.523 -4.162,-2.764 -6.509,-3.671 -2.347,-0.888 -4.84,-1.397 -7.312,-1.576 -4.965,-0.364 -9.784,0.563 -14.206,2.076 -8.887,3.119 -16.47,8.355 -23.124,14.478 -3.307,3.108 -6.363,6.466 -9.075,10.295 -0.344,0.48 -0.668,0.98 -0.991,1.481 -0.052,0.083 -0.229,0.375 -0.344,0.573 -0.125,0.209 -0.23,0.449 -0.344,0.679 -0.209,0.459 -0.386,0.949 -0.522,1.459 -0.553,2.035 -0.323,4.246 0.522,6.082 0.845,1.847 2.284,3.399 4.12,4.349 0.918,0.48 1.929,0.793 2.941,0.928 0.511,0.074 1.023,0.094 1.523,0.074 0.48,-0.01 1.074,-0.105 1.21,-0.115 3.786,-0.574 7.656,-0.48 11.474,0.135 1.898,0.324 3.796,0.772 5.642,1.397 1.857,0.616 3.703,1.315 5.476,2.202 0.897,0.417 1.774,0.928 2.639,1.377 0.824,0.469 1.659,0.98 2.472,1.543 1.648,1.116 3.255,2.42 4.902,3.745 1.68,1.356 3.391,2.764 5.185,4.12 -18.202,0.48 -47.209,3.275 -67.684,11.974 -30.436,12.934 -41.743,33.002 -45.863,47.563 -6.133,21.633 -0.438,43.224 7.938,55.011 17.221,24.292 45.925,40.418 78.74,44.246 7.155,0.834 9.492,-1.659 10.201,-3.881 1.011,-3.202 -1.283,-6.686 -6.154,-9.335 -29.279,-15.906 -41.43,-36.079 -32.491,-53.946 10.086,-20.183 38.499,-26.368 76.476,-16.908 5.163,11.098 14.842,17.346 27.193,17.346 14.946,0 30.738,-4.579 44.673,-8.605 26.223,-7.594 38.103,-9.742 41.848,1.502 l 5.444,-1.815 5.435,1.815 c 3.744,-11.223 15.52,-9.085 41.502,-1.523 13.894,4.036 29.633,8.626 44.612,8.626 13.767,0 24.187,-7.782 28.777,-21.351 36.977,-8.762 64.575,-2.441 74.484,17.387 8.939,17.868 -3.211,38.04 -32.491,53.947 -4.86,2.649 -7.166,6.133 -6.154,9.335 0.71,2.222 3.046,4.714 10.201,3.88 32.815,-3.828 61.52,-19.953 78.75,-44.235 8.365,-11.797 14.061,-33.389 7.928,-55.021 m -43.411,-53.32 c -2.259,-0.959 -4.601,-1.839 -6.99,-2.657 5.078,-18.098 7.801,-37.17 7.801,-56.867 0,-116.21 -94.544,-210.754 -210.754,-210.754 -116.21,0 -210.753,94.544 -210.753,210.754 0,20.845 3.057,40.987 8.721,60.017 -2.781,0.922 -5.502,1.923 -8.113,3.032 -6.304,2.678 -11.84,5.654 -16.714,8.822 -7.241,-22.948 -11.013,-47.117 -11.013,-71.871 0,-63.538 24.743,-123.273 69.672,-168.201 44.927,-44.929 104.662,-69.672 168.2,-69.672 63.538,0 123.274,24.743 168.203,69.672 44.927,44.927 69.67,104.663 69.67,168.201 0,23.745 -3.458,46.958 -10.13,69.067 -5.134,-3.439 -11.022,-6.663 -17.8,-9.543 M -408.171,4.206 c 44.927,44.928 104.662,69.671 168.2,69.671 63.538,0 123.274,-24.743 168.203,-69.671 7.206,-7.206 13.885,-14.798 20.034,-22.721 -4.596,-7.279 -12.686,-12.077 -23.476,-14.221 -38.648,48.413 -98.14,79.494 -164.761,79.494 -65.22,0 -123.612,-29.782 -162.301,-76.457 -11.06,1.684 -19.562,5.962 -24.746,12.698 5.82,7.376 12.101,14.461 18.847,21.207"
             style="fill:#110f0d;fill-opacity:1;fill-rule:nonzero;stroke:none"
             id="path16561" />
        </g>
        <g
           id="g16563"
           transform="translate(199.5649,382.5869)">
          <path
             d="m 0,0 c -2.336,-2.357 -4.433,-4.954 -6.509,-7.53 -2.712,-3.359 -5.225,-6.863 -7.75,-10.358 -2.503,-3.515 -4.912,-7.083 -7.28,-10.671 -0.302,-0.459 -0.595,-0.897 -0.876,-1.283 -0.272,-0.417 -0.564,-0.813 -0.866,-1.199 -0.584,-0.782 -1.21,-1.523 -1.857,-2.231 -1.282,-1.42 -2.712,-2.629 -4.235,-3.631 -3.024,-2.024 -6.487,-3.004 -10.096,-3.045 -3.609,-0.031 -7.343,0.803 -10.952,2.2 -3.599,1.419 -7.114,3.308 -10.431,5.55 -3.327,2.231 -6.498,4.756 -9.429,7.519 -2.931,2.754 -5.705,5.727 -7.958,8.877 l -0.814,1.178 -0.104,0.147 c -0.01,0.02 -0.021,0.031 -0.031,0.042 -0.021,0.032 -0.042,0.073 -0.011,0.188 0.032,0.104 0.125,0.219 0.188,0.26 0.032,0.031 0.052,0.043 0.094,0.052 0.021,0.01 0.052,0.01 0.084,0.022 0.051,0 -0.011,0.01 0.395,-0.022 9.44,-1.042 19.109,1.251 27.005,5.966 1.012,0.574 1.951,1.199 2.931,1.836 0.981,0.679 1.919,1.388 2.795,2.128 1.774,1.47 3.391,2.993 4.913,4.537 3.067,3.056 5.914,6.081 9.127,8.533 1.596,1.251 3.275,2.346 5.08,3.243 1.804,0.897 3.723,1.544 5.715,2.024 3.996,0.959 8.293,0.907 12.569,0.438 l 2.41,-2.921 C -6.237,11.745 -6.592,11.641 -6.937,11.515 -8.459,11.046 -9.972,10.357 -11.463,9.721 -12.944,8.97 -14.415,8.25 -15.802,7.322 -18.598,5.56 -21.153,3.369 -23.271,0.898 c -2.127,-2.462 -3.796,-5.164 -5.163,-7.844 -2.774,-5.351 -4.245,-10.838 -7.416,-14.801 -1.595,-1.92 -3.765,-3.39 -6.414,-3.953 -2.618,-0.627 -5.476,-0.584 -8.282,-0.281 2.691,-0.856 5.518,-1.524 8.511,-1.441 0.751,-0.03 1.492,0.146 2.253,0.22 0.74,0.178 1.512,0.334 2.242,0.615 1.482,0.522 2.848,1.366 4.1,2.326 2.451,1.993 4.297,4.464 5.977,6.821 1.669,2.369 3.222,4.684 4.891,6.75 1.659,2.074 3.432,3.889 5.362,5.361 1.919,1.471 4.005,2.586 6.216,3.41 1.085,0.438 2.264,0.72 3.39,1.032 1.2,0.22 2.347,0.491 3.578,0.595 C -2.712,-0.104 -1.367,-0.031 0,0 m 12.162,-22.405 c -3.713,-0.332 -7.302,-0.386 -9.951,0.23 -1.304,0.334 -2.273,0.762 -3.077,1.366 1.179,2.076 2.409,4.1 3.703,6.039 2.003,2.984 4.11,5.81 6.415,8.22 2.294,2.42 4.777,4.37 7.228,5.591 2.472,1.199 4.83,1.554 7.332,1.188 2.515,-0.323 5.268,-1.512 7.959,-3.285 2.691,-1.763 5.351,-4.015 7.896,-6.498 5.09,-5.038 9.847,-10.89 14.592,-16.929 0.512,-0.647 1.033,-1.293 1.544,-1.951 1.231,-1.846 2.451,-3.786 3.63,-5.788 -0.188,0.241 -0.376,0.479 -0.574,0.719 -2.67,3.223 -6.039,6.029 -9.888,8.106 -3.859,2.054 -8.157,3.316 -12.433,3.859 -8.584,1.125 -16.897,-0.22 -24.376,-0.867 m 52.83,-35.599 c 0.157,-2.545 -0.271,-7.739 -3.243,-11.797 -2.911,-3.953 -7.667,-5.966 -14.155,-5.997 H 47.5 c -12.485,0 -20.621,8.773 -26.639,18.4 2.972,-1.263 6.143,-2.118 9.283,-2.316 17.367,-1.085 18.65,8.355 34.848,1.71 m 2.847,-139.85 c -0.03,-0.126 -0.05,-0.242 -0.084,-0.367 -13.663,-3.555 -23.165,-0.605 -26.941,8.47 -3.066,7.385 -0.772,15.124 1.158,16.125 2.201,1.148 3.953,2.743 5.341,4.662 0.845,-1.115 2.857,-3.452 6.185,-5.632 -3.359,-2.607 -5.925,-5.924 -5.435,-10.023 0.689,-5.686 6.822,-9.825 19.776,-13.235 m -2.075,141.508 c -5.82,11.005 -25.868,25.285 -54.906,17.191 -1.408,2.377 -2.764,4.162 -4.308,5.299 0.209,0.02 0.428,0.02 0.637,0.041 2.231,0.156 4.328,0.459 6.341,0.803 4.047,0.678 7.813,1.564 11.526,2.191 3.703,0.614 7.312,1.105 10.858,1.053 3.546,-0.032 7.009,-0.532 10.295,-1.732 3.296,-1.157 6.394,-3.024 9.21,-5.403 4.548,-3.828 8.25,-8.845 11.504,-14.238 0.334,-1.428 0.648,-2.931 0.95,-4.495 z m -40.71,-47.751 c -3.807,-0.092 -7.416,-0.175 -10.409,0.826 -3.724,1.23 -9.388,5.892 -13.122,14.958 -3.182,7.708 -6.603,22.851 1.043,44.734 1.084,-1.783 2.389,-4.318 3.525,-6.519 6.791,-13.13 18.139,-35.087 41.399,-35.087 h 0.146 c 12.12,0.051 18.556,5.486 21.821,10.035 0.302,0.417 0.573,0.843 0.834,1.26 1.137,-13.789 0.897,-28.85 -1.7,-40.594 -1.545,-6.968 -3.839,-11.808 -6.404,-13.633 -0.345,0.156 -0.689,0.303 -1.033,0.448 -11.213,24.136 -24.95,23.833 -36.1,23.572 m 79.084,-103.355 c 0.344,-0.208 6.425,-3.952 11.577,-5.257 -2.461,-5.789 -8.208,-9.855 -14.883,-9.855 -6.739,0 -12.517,4.139 -14.937,10.011 5.017,1.419 10.681,4.904 11.015,5.101 1.543,0.972 2.722,1.848 3.609,2.702 0.886,-0.854 2.065,-1.73 3.619,-2.702 m 20.162,91.163 c 1.534,-6.926 3.755,-12.151 6.634,-15.678 -0.918,-0.406 -1.867,-0.812 -2.837,-1.21 -6.791,-2.753 -15.062,-5.152 -24.293,-5.182 -0.835,0 -1.669,0.019 -2.513,0.05 -0.146,0 -0.291,0.011 -0.439,0.022 -11.983,-0.614 -22.31,2.941 -30.592,6.519 2.795,3.515 4.965,8.678 6.477,15.479 4.11,18.534 3.005,49.732 -2.222,69.529 0.178,-0.061 0.313,-0.094 0.47,-0.135 1.263,-0.366 2.545,-0.605 3.828,-0.709 2.565,-0.23 5.11,0.04 7.479,0.699 4.766,1.293 8.875,4.172 11.795,7.875 0.909,1.147 1.67,2.388 2.327,3.672 0.689,-1.305 1.481,-2.557 2.41,-3.715 2.962,-3.66 7.061,-6.498 11.797,-7.812 2.368,-0.657 4.891,-0.938 7.458,-0.729 1.272,0.094 2.565,0.322 3.838,0.678 0.156,0.031 0.375,0.103 0.615,0.186 -5.236,-19.797 -6.331,-51.005 -2.232,-69.539 m 16.23,-20.423 c 1.773,0.845 3.797,1.816 5.382,2.461 l 0.157,-0.061 c 0.02,0.051 0.041,0.092 0.062,0.145 0.438,0.167 0.845,0.323 1.189,0.428 0.418,-2.003 0.584,-5.904 0.71,-8.907 0.27,-6.218 0.573,-13.248 2.357,-19.213 -14.217,0.584 -33.326,-7.344 -43.704,-18.244 -2.691,-2.836 -4.757,-5.81 -6.164,-8.856 -1.409,3.046 -3.463,6.02 -6.165,8.856 -10.378,10.9 -29.434,18.817 -43.704,18.244 1.784,5.965 2.086,12.995 2.358,19.213 0.125,3.013 0.302,6.946 0.709,8.938 0.344,-0.094 0.741,-0.228 1.168,-0.387 0.032,-0.072 0.063,-0.145 0.094,-0.217 l 0.229,0.092 c 1.711,-0.657 3.933,-1.677 5.862,-2.565 9.221,-4.244 23.146,-10.659 40.001,-9.836 16.971,-0.823 30.499,5.632 39.459,9.909 m 19.693,-53.039 c -3.609,-8.679 -12.475,-11.745 -25.19,-8.877 1.21,0.72 2.441,1.525 3.682,2.409 9.189,3.099 13.685,6.791 14.258,11.6 0.49,4.099 -2.075,7.416 -5.433,10.023 3.327,2.18 5.339,4.517 6.195,5.632 1.377,-1.919 3.129,-3.514 5.33,-4.662 1.93,-1.001 4.234,-8.74 1.158,-16.125 m 10.67,130.037 c 3.14,0.198 6.321,1.053 9.283,2.316 -6.018,-9.627 -14.154,-18.4 -26.639,-18.4 h -0.094 c -6.488,0.031 -11.244,2.044 -14.144,5.997 -2.983,4.058 -3.4,9.252 -3.254,11.797 16.199,6.645 17.481,-2.795 34.848,-1.71 m 19.286,20.559 c -29.039,8.094 -49.086,-6.186 -54.906,-17.18 l -2.097,0.699 c 0.292,1.564 0.606,3.067 0.939,4.495 3.255,5.393 6.957,10.41 11.515,14.238 2.806,2.379 5.904,4.246 9.2,5.403 3.286,1.2 6.759,1.7 10.295,1.732 3.546,0.052 7.156,-0.439 10.858,-1.053 3.714,-0.627 7.489,-1.513 11.526,-2.191 2.024,-0.344 4.119,-0.647 6.341,-0.803 0.209,-0.021 0.428,-0.021 0.648,-0.041 -1.555,-1.137 -2.901,-2.922 -4.319,-5.299 m 8.658,16.98 c -2.65,-0.616 -6.249,-0.562 -9.952,-0.23 -7.478,0.647 -15.802,1.992 -24.385,0.867 -4.277,-0.543 -8.575,-1.805 -12.434,-3.859 -3.849,-2.077 -7.218,-4.883 -9.878,-8.106 -0.198,-0.24 -0.396,-0.478 -0.584,-0.719 1.179,2.002 2.399,3.942 3.63,5.788 0.501,0.637 1.002,1.263 1.502,1.889 4.735,6.05 9.492,11.9 14.593,16.949 2.554,2.482 5.215,4.746 7.906,6.519 2.69,1.773 5.444,2.962 7.958,3.306 2.514,0.366 4.871,0.021 7.344,-1.178 2.45,-1.21 4.933,-3.171 7.238,-5.591 2.305,-2.399 4.423,-5.236 6.415,-8.219 1.304,-1.939 2.534,-3.974 3.713,-6.05 -0.803,-0.604 -1.763,-1.032 -3.066,-1.366 m -0.366,-21.404 c 7.646,-21.883 4.225,-37.026 1.043,-44.734 -3.734,-9.066 -9.397,-13.728 -13.111,-14.958 -3.004,-1.001 -6.603,-0.918 -10.42,-0.826 -11.171,0.251 -24.949,0.564 -36.173,-23.728 -0.271,-0.126 -0.553,-0.251 -0.834,-0.387 -2.618,1.763 -4.955,6.646 -6.53,13.728 -2.597,11.744 -2.837,26.805 -1.699,40.594 0.26,-0.417 0.542,-0.843 0.834,-1.26 3.264,-4.549 9.711,-9.984 21.831,-10.035 h 0.135 c 23.26,0.009 34.609,21.966 41.399,35.087 1.137,2.201 2.451,4.736 3.525,6.519 M 5.914,17.471 c -14.425,15.98 -20.256,42.014 -15.302,57.962 2.931,9.45 9.044,14.248 18.15,14.248 13.319,0 27.64,-4.151 41.482,-8.156 4.036,-1.168 7.989,-2.305 11.818,-3.317 13.602,-7.25 31.76,-16.991 40.574,-21.957 5.362,4.663 17.586,13.018 29.435,20.236 5.934,1.283 12.266,3.118 18.796,5.027 13.799,4.016 28.068,8.167 41.409,8.167 9.105,0 15.218,-4.798 18.159,-14.248 4.965,-15.99 -0.907,-42.128 -15.427,-58.098 -0.824,-0.062 -2.054,0.105 -3.348,0.501 -2.931,0.887 -6.112,2.493 -9.22,4.204 -6.279,3.463 -12.548,7.447 -19.078,11.025 -6.529,3.567 -13.34,6.894 -20.642,8.824 -3.64,0.96 -7.405,1.554 -11.16,1.481 -3.745,-0.052 -7.469,-0.793 -10.848,-2.243 3.536,1.043 7.218,1.315 10.795,0.939 3.588,-0.355 7.073,-1.334 10.4,-2.649 6.685,-2.649 12.777,-6.582 18.68,-10.775 5.914,-4.214 11.558,-8.813 17.67,-13.225 0.751,-0.522 1.502,-1.054 2.274,-1.576 -1.794,0.115 -3.588,0.053 -5.33,-0.208 -5.184,-0.793 -9.638,-2.994 -13.382,-5.497 -3.786,-2.504 -6.947,-5.445 -9.867,-8.438 -5.821,-6.019 -10.515,-12.527 -15.062,-18.9 -2.243,-3.203 -4.423,-6.394 -6.624,-9.418 -1.116,-1.502 -2.19,-2.994 -3.307,-4.351 -0.437,-0.542 -0.886,-1.063 -1.324,-1.553 -0.657,-0.721 -1.294,-1.367 -1.856,-1.836 l -0.323,-0.262 -0.251,-0.177 c -0.208,-0.114 -0.052,-0.094 -0.459,-0.261 -0.584,-0.228 -1.2,-0.417 -1.846,-0.542 -1.283,-0.25 -2.691,-0.26 -4.1,-0.031 -2.826,0.48 -5.663,1.857 -7.853,4.005 -2.222,2.118 -3.839,4.965 -4.601,8.188 -0.782,3.223 -0.719,6.801 -0.031,10.347 0.71,3.557 1.93,7.135 3.599,10.557 0.844,1.709 1.731,3.41 2.702,5.089 0.98,1.669 2.033,3.296 3.097,4.933 -2.9,-2.607 -5.643,-5.455 -8.032,-8.657 -2.054,-2.785 -3.953,-5.768 -5.361,-9.074 -1.429,3.306 -3.348,6.31 -5.424,9.095 -2.389,3.181 -5.131,6.029 -8.031,8.636 1.064,-1.637 2.117,-3.264 3.097,-4.933 0.971,-1.669 1.857,-3.369 2.704,-5.079 1.678,-3.41 2.919,-6.989 3.649,-10.535 0.699,-3.547 0.813,-7.124 0.062,-10.358 -0.71,-3.232 -2.284,-6.091 -4.474,-8.23 -2.159,-2.159 -4.975,-3.525 -7.771,-3.984 -1.398,-0.24 -2.785,-0.209 -4.068,0.042 -0.647,0.135 -1.251,0.323 -1.835,0.563 -0.063,0.031 -0.157,0.062 -0.199,0.084 -0.01,0.02 -0.03,0.031 -0.052,0.051 -0.019,0.011 -0.041,0.021 -0.062,0.033 l -0.116,0.082 c -0.134,0.084 -0.375,0.283 -0.584,0.449 -0.593,0.512 -1.252,1.189 -1.929,1.94 -0.416,0.469 -0.845,0.97 -1.272,1.492 -1.105,1.355 -2.191,2.847 -3.296,4.359 -2.201,3.025 -4.382,6.206 -6.614,9.409 -4.547,6.362 -9.241,12.871 -15.061,18.879 -2.92,2.993 -6.081,5.924 -9.877,8.417 -3.745,2.503 -8.199,4.694 -13.394,5.476 -1.72,0.261 -3.504,0.313 -5.288,0.198 1.189,0.783 2.347,1.596 3.494,2.399 6.467,4.652 12.497,9.503 18.775,13.998 6.259,4.475 12.705,8.678 19.735,11.682 3.505,1.481 7.177,2.618 10.964,3.129 3.785,0.512 7.707,0.334 11.451,-0.793 -3.588,1.534 -7.583,2.191 -11.547,2.097 C 69.382,46.27 65.43,45.498 61.613,44.371 53.967,42.077 46.822,38.478 39.949,34.64 33.075,30.791 26.441,26.577 19.787,22.843 16.48,21.007 13.111,19.265 9.93,18.201 9.147,17.94 8.375,17.732 7.677,17.607 6.999,17.471 6.383,17.429 5.914,17.471 m 274.353,-31.718 c -0.031,0.104 -0.114,0.219 -0.178,0.26 -0.031,0.031 -0.062,0.043 -0.103,0.052 -0.022,0.01 -0.042,0.01 -0.084,0.022 -0.052,0 0.011,0.01 -0.386,-0.022 -9.439,-1.042 -19.119,1.251 -27.015,5.966 -1.001,0.574 -1.951,1.199 -2.92,1.836 -0.981,0.679 -1.919,1.388 -2.795,2.128 -1.774,1.47 -3.391,2.993 -4.924,4.537 -3.067,3.056 -5.904,6.081 -9.126,8.533 -1.586,1.251 -3.276,2.346 -5.08,3.243 -1.794,0.897 -3.713,1.544 -5.705,2.024 -4.006,0.959 -8.293,0.907 -12.579,0.438 l -2.4,-2.921 c 0.344,-0.104 0.689,-0.208 1.032,-0.334 1.534,-0.469 3.046,-1.158 4.538,-1.794 1.471,-0.751 2.941,-1.471 4.339,-2.399 2.795,-1.762 5.351,-3.953 7.468,-6.424 2.117,-2.462 3.786,-5.164 5.152,-7.844 2.786,-5.351 4.247,-10.838 7.418,-14.801 1.605,-1.92 3.775,-3.39 6.414,-3.953 2.618,-0.627 5.476,-0.584 8.292,-0.281 -2.691,-0.856 -5.518,-1.524 -8.511,-1.441 -0.751,-0.03 -1.502,0.146 -2.264,0.22 -0.74,0.178 -1.502,0.334 -2.231,0.615 -1.482,0.522 -2.848,1.366 -4.111,2.326 -2.451,1.993 -4.287,4.464 -5.976,6.821 -1.669,2.369 -3.223,4.684 -4.881,6.75 -1.659,2.074 -3.432,3.889 -5.361,5.361 -1.93,1.471 -4.016,2.586 -6.228,3.41 -1.074,0.438 -2.253,0.72 -3.39,1.032 -1.189,0.22 -2.337,0.491 -3.578,0.595 -0.459,0.063 -0.927,0.105 -1.397,0.146 3.547,-4.412 6.331,-9.085 8.782,-13.82 0.96,-1.304 1.898,-2.618 2.848,-3.922 2.504,-3.515 4.913,-7.083 7.291,-10.671 0.292,-0.459 0.594,-0.897 0.866,-1.283 0.281,-0.417 0.562,-0.813 0.865,-1.199 0.584,-0.782 1.21,-1.523 1.857,-2.231 1.283,-1.42 2.722,-2.629 4.235,-3.631 3.035,-2.024 6.498,-3.004 10.106,-3.045 3.61,-0.031 7.344,0.803 10.943,2.2 3.598,1.419 7.124,3.308 10.43,5.55 3.328,2.231 6.508,4.756 9.44,7.519 2.931,2.754 5.694,5.727 7.947,8.877 l 0.824,1.178 0.105,0.147 c 0.011,0.02 0.011,0.031 0.02,0.042 0.022,0.032 0.042,0.073 0.011,0.188 M 70.76,-206.044 c -0.406,-0.114 -0.803,-0.208 -1.199,-0.311 -2.003,-2.829 -3.858,-5.79 -4.997,-7.917 3.902,-1.252 7.093,-4.163 10.327,-7.344 -2.629,4.465 -4.152,9.669 -4.152,15.219 0,0.113 0.011,0.239 0.021,0.353 m 60.028,-3.087 c 2.19,-2.972 4.204,-5.842 5.486,-7.875 -4.568,-2.42 -7.447,-5.058 -10.044,-7.448 -1.763,-1.615 -3.484,-3.191 -5.737,-4.692 5.726,4.955 9.575,12.037 10.295,20.015"
             style="fill:#704425;fill-opacity:1;fill-rule:nonzero;stroke:none"
             id="path16565" />
        </g>
        <g
           id="g16567"
           transform="translate(141.5088,405.0229)">
          <path
             d="m 0,0 c -16.303,1.439 -32.71,4.986 -47.688,12.246 -7.448,3.64 -14.478,8.313 -20.465,14.132 -5.966,5.8 -10.941,12.778 -13.747,20.611 -0.793,1.92 -1.262,3.953 -1.794,5.946 -0.261,0.991 -0.366,2.034 -0.553,3.045 l -0.251,1.523 c -0.072,0.501 -0.083,1.022 -0.125,1.534 -0.062,1.032 -0.156,2.054 -0.198,3.076 l 0.084,3.067 c -0.011,1.022 0.177,2.034 0.281,3.046 0.146,1.001 0.209,2.024 0.47,3.004 l 0.667,2.962 c 0.292,0.97 0.616,1.93 0.928,2.89 0.167,0.469 0.292,0.959 0.491,1.418 l 0.605,1.387 c 0.427,0.907 0.751,1.857 1.252,2.722 1.804,3.589 4.192,6.791 6.769,9.774 -2.264,-3.234 -4.277,-6.624 -5.664,-10.264 -0.417,-0.887 -0.626,-1.846 -0.949,-2.753 l -0.438,-1.387 c -0.156,-0.449 -0.219,-0.939 -0.334,-1.409 -0.198,-0.949 -0.427,-1.877 -0.605,-2.826 l -0.344,-2.858 c -0.157,-0.949 -0.115,-1.909 -0.146,-2.869 -0.011,-0.49 -0.032,-0.991 -0.032,-1.492 0.303,0.063 0.605,0.136 0.918,0.188 0.96,0.167 1.909,0.282 2.869,0.324 0.949,0.052 1.888,0.073 2.827,0.01 0.928,-0.042 1.846,-0.156 2.753,-0.281 -0.897,-0.22 -1.763,-0.459 -2.607,-0.772 -0.856,-0.282 -1.669,-0.637 -2.462,-1.012 -0.793,-0.376 -1.554,-0.803 -2.284,-1.252 -0.366,-0.229 -0.709,-0.469 -1.054,-0.709 -0.167,-0.125 -0.334,-0.25 -0.49,-0.375 -0.073,-0.063 -0.146,-0.115 -0.219,-0.178 l 0.01,-0.146 c 0.136,-0.939 0.324,-1.867 0.47,-2.795 0.094,-0.469 0.146,-0.939 0.261,-1.398 l 0.375,-1.366 c 0.115,-0.417 0.219,-0.835 0.334,-1.252 0.323,0.188 0.647,0.386 0.97,0.563 1.168,0.626 2.357,1.189 3.567,1.679 1.21,0.47 2.42,0.908 3.661,1.242 1.22,0.355 2.462,0.605 3.693,0.834 -1.064,-0.678 -2.087,-1.366 -3.046,-2.127 -0.97,-0.752 -1.878,-1.565 -2.743,-2.389 -0.866,-0.834 -1.659,-1.721 -2.41,-2.628 -0.365,-0.449 -0.72,-0.908 -1.053,-1.377 -0.157,-0.23 -0.324,-0.459 -0.47,-0.689 -0.073,-0.115 -0.146,-0.229 -0.209,-0.344 -0.01,-0.01 -0.01,-0.021 -0.02,-0.031 0.208,-0.47 0.427,-0.929 0.667,-1.377 0.95,-1.982 2.065,-3.86 3.307,-5.664 0.855,1.304 1.752,2.566 2.722,3.755 1.064,1.304 2.17,2.566 3.359,3.724 1.157,1.178 2.409,2.253 3.661,3.275 -0.772,-1.429 -1.502,-2.858 -2.107,-4.339 -0.636,-1.45 -1.148,-2.952 -1.607,-4.433 -0.448,-1.492 -0.792,-3.004 -1.063,-4.496 -0.136,-0.74 -0.24,-1.491 -0.324,-2.221 -0.031,-0.324 -0.062,-0.647 -0.083,-0.96 1.398,-1.502 2.889,-2.91 4.454,-4.245 0,0.01 0.01,0.031 0.01,0.042 0.741,1.971 1.544,3.88 2.482,5.705 0.929,1.825 1.909,3.598 3.025,5.278 1.075,1.7 2.274,3.296 3.495,4.839 -0.553,-1.898 -1.043,-3.786 -1.377,-5.694 -0.375,-1.889 -0.595,-3.797 -0.751,-5.675 -0.157,-1.887 -0.178,-3.765 -0.115,-5.601 0.032,-0.928 0.104,-1.836 0.188,-2.733 0.052,-0.438 0.104,-0.886 0.167,-1.314 0.01,-0.042 0.021,-0.073 0.021,-0.114 2.034,-1.284 4.119,-2.473 6.279,-3.537 0.146,2.399 0.386,4.757 0.782,7.083 0.438,2.586 0.96,5.131 1.669,7.614 0.657,2.483 1.523,4.903 2.42,7.249 0.062,-2.524 0.177,-5.017 0.49,-7.478 0.271,-2.451 0.741,-4.871 1.262,-7.229 0.543,-2.367 1.231,-4.673 2.024,-6.894 0.385,-1.117 0.824,-2.201 1.272,-3.255 0.219,-0.48 0.428,-0.959 0.657,-1.418 1.627,-0.543 3.276,-1.033 4.934,-1.492 -0.052,1.002 -0.084,2.003 -0.084,3.004 -0.01,2.952 0.136,5.862 0.48,8.741 0.334,2.879 0.783,5.705 1.45,8.47 0.615,2.774 1.471,5.465 2.368,8.094 0.062,-2.785 0.188,-5.539 0.553,-8.251 0.323,-2.712 0.845,-5.372 1.47,-7.979 0.616,-2.597 1.419,-5.142 2.326,-7.593 0.449,-1.231 0.95,-2.42 1.471,-3.589 0.271,-0.574 0.532,-1.158 0.814,-1.71 0.146,-0.271 0.281,-0.543 0.427,-0.804 0.074,-0.125 0.146,-0.26 0.209,-0.375 0.073,-0.105 0.146,-0.261 0.188,-0.271 l -0.501,-0.177 c 1.512,-0.251 3.025,-0.47 4.537,-0.668 -0.135,1.387 -0.25,2.775 -0.313,4.141 -0.146,3.223 -0.114,6.414 0.125,9.565 0.251,3.16 0.626,6.268 1.242,9.325 0.563,3.045 1.398,6.028 2.295,8.928 0.072,-3.056 0.208,-6.06 0.636,-9.033 0.354,-2.973 0.949,-5.883 1.658,-8.73 0.709,-2.848 1.617,-5.633 2.649,-8.313 0.512,-1.346 1.085,-2.66 1.669,-3.933 0.303,-0.636 0.605,-1.272 0.918,-1.867 0.157,-0.313 0.324,-0.605 0.48,-0.886 0.032,-0.063 0.073,-0.115 0.104,-0.178 1.356,-0.062 2.712,-0.104 4.068,-0.135 -0.146,1.116 -0.261,2.222 -0.354,3.317 -0.282,3.484 -0.376,6.947 -0.22,10.378 0.136,3.421 0.449,6.822 1.023,10.149 0.5,3.338 1.325,6.592 2.222,9.784 0.072,-3.328 0.229,-6.603 0.698,-9.836 0.407,-3.223 1.075,-6.394 1.878,-9.492 0.793,-3.098 1.804,-6.123 2.962,-9.033 0.574,-1.46 1.21,-2.889 1.857,-4.286 0.146,-0.272 0.281,-0.553 0.417,-0.835 1.596,0.073 3.191,0.167 4.777,0.271 -0.042,0.323 -0.084,0.647 -0.125,0.981 -0.418,3.734 -0.626,7.458 -0.574,11.171 0.042,3.692 0.282,7.364 0.803,10.983 0.449,3.609 1.263,7.155 2.16,10.618 0.072,-3.598 0.239,-7.134 0.771,-10.628 0.449,-3.484 1.179,-6.916 2.076,-10.264 0.886,-3.348 2.003,-6.613 3.285,-9.763 0.303,-0.772 0.637,-1.523 0.971,-2.274 1.898,0.209 3.796,0.438 5.694,0.689 -0.364,3.181 -0.584,6.352 -0.615,9.512 l -0.031,1.481 0.031,1.492 c 0.031,0.991 0.031,1.971 0.084,2.962 0.146,1.972 0.229,3.933 0.5,5.873 0.386,3.9 1.2,7.718 2.087,11.462 0.072,-3.858 0.25,-7.676 0.834,-11.421 0.219,-1.877 0.615,-3.734 0.96,-5.58 0.177,-0.918 0.427,-1.836 0.626,-2.743 l 0.323,-1.367 0.386,-1.356 c 0.834,-3.098 1.867,-6.122 3.035,-9.074 1.69,0.292 3.39,0.594 5.079,0.917 C 35.036,31.01 34.452,43.579 37.018,53.895 28.329,51.954 20.11,50.828 12.454,50.494 7.375,50.265 2.545,50.4 -2.002,50.87 c -19.433,2.012 -33.774,10.305 -40.826,24.417 -5.1,10.191 -4.735,21.289 1.033,32.105 6.05,11.317 17.565,21.654 34.243,30.708 0.522,0.281 0.949,0.552 1.315,0.813 -0.397,-0.021 -0.866,-0.052 -1.398,-0.115 C -38.572,135.189 -65.566,120.076 -81.702,97.337 -88.899,87.178 -94.146,67.412 -88.649,48.012 -83.308,29.143 -68.768,14.196 -46.614,4.777 -21.195,-6.019 19.557,-7.312 31.26,-6.55 c 1.825,0.511 3.693,0.855 5.57,0.938 2.243,0.126 4.475,0 6.634,-0.365 2.159,-0.406 4.266,-0.96 6.289,-1.69 l 2.41,-2.92 c 0.396,0.136 0.793,0.271 1.189,0.386 C 50.65,-6.895 48.178,-3.254 45.988,0.678 30.77,-0.876 15.354,-1.304 0,0 m 405.401,44.486 c -5.35,-18.869 -19.89,-33.815 -42.045,-43.224 -20.913,-8.887 -52.204,-11.338 -69.165,-11.505 -0.312,0.188 -0.615,0.407 -0.938,0.595 -3.922,2.253 -8.397,3.817 -12.902,4.036 -2.243,0.126 -4.475,0 -6.634,-0.365 -2.159,-0.406 -4.256,-0.96 -6.289,-1.69 l -2.4,-2.92 c -0.407,0.136 -0.813,0.282 -1.22,0.397 1.909,2.336 3.703,4.839 5.361,7.499 15.74,-1.69 31.688,-2.18 47.584,-0.834 16.303,1.439 32.71,4.985 47.678,12.245 7.447,3.64 14.488,8.313 20.465,14.133 5.976,5.799 10.941,12.777 13.747,20.611 0.794,1.919 1.272,3.953 1.794,5.945 0.26,1.002 0.365,2.034 0.552,3.046 l 0.251,1.523 c 0.073,0.511 0.083,1.022 0.125,1.533 0.073,1.032 0.156,2.055 0.198,3.077 l -0.084,3.067 c 0.011,1.022 -0.166,2.033 -0.281,3.045 -0.146,1.012 -0.209,2.024 -0.469,3.004 l -0.667,2.963 c -0.283,0.97 -0.616,1.929 -0.929,2.889 -0.167,0.469 -0.281,0.96 -0.49,1.418 l -0.605,1.388 c -0.428,0.907 -0.741,1.856 -1.252,2.722 -1.805,3.588 -4.193,6.801 -6.759,9.773 2.253,-3.233 4.266,-6.623 5.664,-10.263 0.407,-0.876 0.625,-1.846 0.939,-2.754 l 0.448,-1.377 c 0.147,-0.459 0.219,-0.949 0.334,-1.419 0.198,-0.938 0.417,-1.877 0.595,-2.826 l 0.344,-2.858 c 0.156,-0.949 0.115,-1.909 0.146,-2.868 0.01,-0.491 0.031,-0.991 0.041,-1.492 -0.312,0.063 -0.615,0.136 -0.917,0.188 -0.971,0.167 -1.92,0.281 -2.869,0.323 -0.959,0.052 -1.898,0.073 -2.826,0.01 -0.94,-0.041 -1.857,-0.156 -2.765,-0.281 0.898,-0.219 1.763,-0.459 2.61,-0.772 0.853,-0.281 1.667,-0.636 2.459,-1.011 0.793,-0.376 1.555,-0.804 2.285,-1.252 0.365,-0.23 0.71,-0.47 1.053,-0.709 0.167,-0.126 0.334,-0.251 0.491,-0.376 0.073,-0.062 0.146,-0.115 0.218,-0.177 l -0.009,-0.146 c -0.136,-0.939 -0.314,-1.867 -0.47,-2.796 -0.083,-0.469 -0.146,-0.938 -0.261,-1.397 l -0.365,-1.367 c -0.125,-0.417 -0.23,-0.834 -0.344,-1.252 -0.323,0.188 -0.637,0.387 -0.971,0.564 -1.168,0.626 -2.356,1.199 -3.566,1.679 -1.21,0.469 -2.42,0.908 -3.651,1.241 -1.231,0.355 -2.472,0.605 -3.703,0.835 1.064,-0.678 2.086,-1.366 3.045,-2.128 0.971,-0.751 1.878,-1.565 2.744,-2.388 0.866,-0.835 1.67,-1.722 2.41,-2.629 0.365,-0.449 0.719,-0.908 1.052,-1.377 0.158,-0.229 0.325,-0.459 0.47,-0.688 0.073,-0.115 0.147,-0.23 0.209,-0.344 0.01,-0.011 0.01,-0.021 0.021,-0.032 -0.208,-0.469 -0.428,-0.918 -0.667,-1.377 -0.95,-1.982 -2.066,-3.859 -3.297,-5.663 -0.865,1.303 -1.752,2.566 -2.722,3.755 -1.074,1.314 -2.181,2.566 -3.358,3.723 -1.169,1.179 -2.42,2.253 -3.661,3.275 0.771,-1.429 1.491,-2.858 2.106,-4.339 0.626,-1.449 1.137,-2.951 1.596,-4.433 0.448,-1.491 0.803,-3.004 1.064,-4.495 0.146,-0.741 0.25,-1.492 0.333,-2.222 0.031,-0.323 0.064,-0.646 0.084,-0.96 -1.408,-1.502 -2.899,-2.91 -4.464,-4.245 0,0.011 -0.01,0.032 -0.01,0.042 -0.731,1.971 -1.544,3.88 -2.473,5.705 -0.939,1.826 -1.919,3.599 -3.023,5.278 -1.076,1.7 -2.286,3.297 -3.506,4.84 0.552,-1.898 1.043,-3.786 1.387,-5.685 0.366,-1.898 0.595,-3.807 0.751,-5.684 0.146,-1.888 0.167,-3.766 0.105,-5.601 -0.031,-0.929 -0.094,-1.836 -0.189,-2.733 -0.051,-0.438 -0.093,-0.887 -0.166,-1.304 -0.01,-0.042 -0.01,-0.083 -0.021,-0.125 -2.024,-1.283 -4.12,-2.472 -6.269,-3.536 -0.156,2.399 -0.396,4.756 -0.782,7.082 -0.438,2.597 -0.96,5.143 -1.68,7.614 -0.657,2.494 -1.522,4.903 -2.42,7.25 -0.062,-2.525 -0.176,-5.017 -0.49,-7.479 -0.27,-2.451 -0.729,-4.871 -1.262,-7.228 -0.542,-2.368 -1.23,-4.673 -2.012,-6.895 -0.397,-1.116 -0.824,-2.201 -1.283,-3.254 -0.209,-0.48 -0.428,-0.96 -0.647,-1.419 -1.638,-0.542 -3.275,-1.032 -4.933,-1.491 0.042,1.011 0.083,2.002 0.083,3.004 0,2.951 -0.147,5.872 -0.48,8.74 -0.345,2.879 -0.793,5.706 -1.461,8.47 -0.615,2.775 -1.46,5.465 -2.356,8.094 -0.074,-2.785 -0.199,-5.539 -0.564,-8.251 -0.313,-2.712 -0.845,-5.371 -1.471,-7.979 -0.615,-2.597 -1.418,-5.142 -2.326,-7.593 -0.448,-1.231 -0.949,-2.42 -1.47,-3.588 -0.272,-0.574 -0.533,-1.158 -0.814,-1.711 -0.136,-0.271 -0.282,-0.542 -0.428,-0.803 -0.073,-0.125 -0.135,-0.261 -0.209,-0.375 -0.062,-0.105 -0.145,-0.261 -0.187,-0.271 l 0.501,-0.178 c -1.502,-0.25 -3.026,-0.469 -4.537,-0.668 0.136,1.388 0.25,2.775 0.312,4.152 0.147,3.213 0.125,6.404 -0.125,9.565 -0.24,3.15 -0.626,6.258 -1.241,9.314 -0.563,3.046 -1.397,6.029 -2.295,8.928 -0.073,-3.056 -0.209,-6.06 -0.626,-9.032 -0.365,-2.963 -0.959,-5.883 -1.669,-8.731 -0.709,-2.847 -1.616,-5.632 -2.649,-8.313 -0.511,-1.346 -1.074,-2.649 -1.669,-3.932 -0.302,-0.626 -0.594,-1.272 -0.918,-1.867 -0.156,-0.313 -0.313,-0.605 -0.48,-0.887 -0.031,-0.062 -0.062,-0.115 -0.093,-0.177 -1.356,-0.052 -2.712,-0.104 -4.068,-0.135 0.135,1.115 0.261,2.221 0.344,3.317 0.281,3.483 0.376,6.946 0.229,10.377 -0.146,3.422 -0.448,6.822 -1.022,10.149 -0.511,3.338 -1.335,6.593 -2.231,9.784 -0.074,-3.327 -0.22,-6.602 -0.7,-9.836 -0.407,-3.223 -1.063,-6.393 -1.867,-9.492 -0.793,-3.097 -1.814,-6.122 -2.971,-9.032 -0.575,-1.46 -1.201,-2.889 -1.858,-4.287 -0.136,-0.271 -0.282,-0.553 -0.417,-0.834 -1.597,0.072 -3.182,0.166 -4.777,0.271 0.042,0.323 0.093,0.646 0.125,0.98 0.427,3.734 0.626,7.458 0.573,11.171 -0.041,3.692 -0.281,7.364 -0.803,10.983 -0.448,3.609 -1.261,7.156 -2.159,10.619 -0.073,-3.599 -0.24,-7.135 -0.762,-10.629 -0.459,-3.484 -1.188,-6.915 -2.086,-10.264 -0.876,-3.348 -2.002,-6.612 -3.285,-9.763 -0.301,-0.771 -0.626,-1.522 -0.96,-2.273 -1.908,0.208 -3.806,0.438 -5.705,0.688 0.365,3.181 0.584,6.352 0.615,9.513 l 0.032,1.491 -0.032,1.481 c -0.031,0.992 -0.031,1.982 -0.083,2.963 -0.135,1.971 -0.23,3.932 -0.491,5.882 -0.395,3.891 -1.199,7.708 -2.086,11.453 -0.083,-3.859 -0.259,-7.677 -0.844,-11.421 -0.219,-1.878 -0.616,-3.734 -0.96,-5.58 -0.177,-0.918 -0.417,-1.836 -0.625,-2.744 l -0.324,-1.366 -0.386,-1.356 c -0.834,-3.098 -1.868,-6.123 -3.036,-9.075 -1.908,0.324 -3.817,0.668 -5.726,1.033 4.037,12.12 5.216,24.501 3.453,35.015 3.025,-0.647 5.997,-1.199 8.907,-1.658 5.007,-0.793 9.836,-1.283 14.457,-1.482 5.079,-0.218 9.919,-0.093 14.467,0.386 19.442,2.014 33.776,10.306 40.825,24.408 5.101,10.19 4.736,21.288 -1.033,32.105 -6.049,11.317 -17.564,21.654 -34.243,30.707 -0.511,0.282 -0.949,0.563 -1.314,0.814 0.396,-0.021 0.866,-0.053 1.398,-0.115 30.936,-3.609 57.931,-18.723 74.066,-41.461 7.198,-10.16 12.454,-29.925 6.957,-49.326"
             style="fill:#c0935c;fill-opacity:1;fill-rule:nonzero;stroke:none"
             id="path16569" />
        </g>
      </g>
    </g>
  </g>
</svg>
